<svg width="32" height="48" viewBox="0 0 32 48" fill="none" xmlns="http://www.w3.org/2000/svg">
<path fill-rule="evenodd" clip-rule="evenodd" d="M21.3588 3C17.7296 3 14.8066 6.11296 14.8066 9.89786C14.8066 11.2422 15.1843 12.4921 15.8132 13.5506C15.877 13.662 15.9832 13.7435 16.1083 13.7768C16.2334 13.8104 16.367 13.7927 16.4789 13.7279C16.5909 13.6634 16.6718 13.5569 16.7032 13.4329C16.7349 13.3088 16.715 13.1778 16.6475 13.0684C16.1009 12.1484 15.7738 11.0662 15.7738 9.89786C15.7738 6.59427 18.2915 3.95359 21.3592 3.95359C24.4268 3.95359 26.93 6.59299 26.93 9.89786C26.93 11.0703 26.6161 12.1508 26.0705 13.0684H26.0701C26.0027 13.1775 25.9821 13.3088 26.0138 13.4329C26.0455 13.5569 26.1261 13.6634 26.2381 13.7282C26.35 13.7931 26.4836 13.8107 26.609 13.7771C26.7341 13.7439 26.8403 13.6624 26.9041 13.5506C27.5354 12.4886 27.8965 11.2385 27.8965 9.89786C27.8965 6.11432 24.988 3 21.3588 3H21.3588Z" fill="#2E2E2E"/>
<path fill-rule="evenodd" clip-rule="evenodd" d="M21.3449 7.01807C19.6969 7.01807 18.2783 8.17183 18.2783 9.67007V20.4133C18.2472 20.3887 18.2192 20.3617 18.1875 20.3388C17.562 19.8855 16.7699 19.7032 15.997 19.7129C15.2241 19.7225 14.4572 19.9171 13.8515 20.3238C13.2648 20.7179 12.829 21.3631 12.8391 22.1268C12.2446 21.6409 11.5014 21.418 10.7692 21.4117C10.0068 21.4051 9.24201 21.6256 8.66939 22.1122C8.18446 22.5239 7.84893 23.1445 7.80812 23.8702C7.6928 23.7684 7.58724 23.6663 7.46079 23.5871C6.76275 23.1511 5.93019 23.0743 5.17947 23.2742C3.67848 23.6739 2.42671 25.1951 2.68674 27.1778C3.68392 34.8382 4.54418 38.0683 5.8745 43.6425C5.92778 43.8454 6.13045 44 6.3429 44C10.631 43.9711 14.3263 43.9448 18.6102 43.9106H18.625C21.0665 43.8364 23.6206 41.7864 25.6952 38.2337C27.7701 34.6809 29.3601 29.5705 29.7138 23.1848C29.7213 23.0541 29.6703 22.9211 29.5779 22.8273C29.0617 22.3267 28.5636 22.0045 28.0672 21.8738C27.9121 21.8329 27.7664 21.8152 27.614 21.8142C27.2788 21.8112 26.9507 21.8954 26.6771 22.0527C25.882 22.5097 25.4268 23.4223 25.0305 24.3772C24.7918 24.9522 24.582 25.5316 24.3962 26.0907C24.353 21.5528 24.411 15.8881 24.411 9.67102C24.411 8.17269 22.9883 7.01902 21.3444 7.01902L21.3449 7.01807ZM21.3449 7.97157C22.541 7.97157 23.4448 8.78308 23.4448 9.67007C23.4448 16.834 23.3659 23.3277 23.4596 28.1459C23.5294 30.0532 24.3026 29.1041 24.9552 27.4454C25.2489 26.6319 25.5541 25.6205 25.9219 24.7338C26.2899 23.8472 26.7444 23.1254 27.1609 22.8864C27.369 22.7666 27.5568 22.726 27.8256 22.7969C28.0617 22.8591 28.3618 23.034 28.732 23.3629C28.3611 29.5168 26.8224 34.4042 24.8644 37.7562C22.8853 41.1449 20.4829 42.8956 18.5948 42.9562C14.4484 42.9891 10.8374 43.0177 6.72034 43.0456C5.44061 37.6979 4.60797 34.5067 3.6385 27.0585C3.43616 25.517 4.39151 24.476 5.4362 24.1979C5.95856 24.0589 6.47888 24.1084 6.93176 24.3915C7.38465 24.6745 7.78729 25.211 7.98928 26.1199V26.1346C7.994 26.1446 7.99906 26.1545 8.00412 26.1642L8.06448 26.8792C8.04223 27.1533 8.30661 27.4144 8.58481 27.3927C8.86268 27.3708 9.08221 27.0718 9.01645 26.8047L8.95609 26.0298C8.95609 25.9946 8.94968 25.9596 8.94125 25.9254V25.9107V25.8961L8.79018 24.1826C8.73386 23.5544 8.94294 23.1483 9.30377 22.8416C9.66493 22.535 10.1998 22.3601 10.7542 22.3647C11.3086 22.3697 11.8589 22.5466 12.2649 22.9012C12.6204 23.2111 12.88 23.6505 12.9448 24.2867C12.9495 24.3249 12.9572 24.3662 12.9596 24.4057C12.9643 24.4753 12.9711 24.5448 12.9744 24.6143V24.6592C12.9943 25.0556 13.0149 25.4537 13.0348 25.8512C13.0061 26.1259 13.2671 26.3933 13.5464 26.376C13.8256 26.3584 14.0502 26.0604 13.9864 25.7916C13.9682 25.4225 13.9443 25.0576 13.9261 24.6891C13.9308 24.6542 13.9308 24.6196 13.9261 24.5847C13.9315 24.5747 13.9369 24.5651 13.9409 24.5551C13.9409 24.4267 13.9241 24.304 13.9106 24.1826V24.1377C13.8772 23.4755 13.8404 22.82 13.8047 22.1562C13.7824 21.7142 13.9885 21.3856 14.3938 21.1132C14.7998 20.8405 15.4068 20.6738 16.0105 20.6662C16.6141 20.6585 17.2059 20.8189 17.612 21.1132C18.018 21.4075 18.2712 21.797 18.2614 22.4692C18.2567 22.5194 18.2614 22.5696 18.2763 22.6182V23.4972C18.2716 23.7489 18.5042 23.9808 18.7599 23.9808C19.0155 23.9808 19.2468 23.7489 19.2434 23.4972V9.67011C19.2434 8.7831 20.1418 7.97162 21.3433 7.97162L21.3449 7.97157Z" fill="#2E2E2E"/>
</svg>
