<svg width="48" height="48" viewBox="0 0 48 48" fill="none" xmlns="http://www.w3.org/2000/svg">
<path d="M5.7042 8.0656C5.47182 8.0656 5.28345 7.87954 5.28345 7.65001C5.28345 7.42047 5.47182 7.23441 5.7042 7.23441C10.1573 7.23441 14.1891 9.01733 17.1072 11.8999C20.0255 14.7824 21.8306 18.7644 21.8306 23.1631C21.8306 27.5616 20.0255 31.5439 17.1072 34.4262C14.1889 37.3088 10.1575 39.0917 5.7042 39.0917C5.47182 39.0917 5.28345 38.9056 5.28345 38.6761C5.28345 38.4466 5.47182 38.2605 5.7042 38.2605C9.92522 38.2605 13.7466 36.5706 16.5123 33.8385C19.278 31.1063 20.9893 27.3319 20.9893 23.1629C20.9893 18.9936 19.2784 15.2191 16.5123 12.4873C13.7463 9.75554 9.92492 8.06528 5.7042 8.06528V8.0656ZM29.0961 4.00007C29.3285 4.00007 29.5169 4.18613 29.5169 4.41567C29.5169 4.6452 29.3285 4.83126 29.0961 4.83126C28.3535 4.83126 27.6114 6.79937 27.012 9.98157C26.3783 13.3472 25.9863 18.007 25.9863 23.1634C25.9863 28.3198 26.3783 32.9798 27.012 36.3452C27.6112 39.5274 28.3532 41.4955 29.0961 41.4955C29.3285 41.4955 29.5169 41.6816 29.5169 41.9111C29.5169 42.1406 29.3285 42.3267 29.0961 42.3267C27.8891 42.3267 26.8659 40.098 26.1872 36.4948C25.5432 33.0752 25.145 28.361 25.145 23.1638C25.145 17.966 25.5435 13.2524 26.1872 9.8329C26.8659 6.22966 27.889 4.00099 29.0961 4.00099V4.00007ZM35.6014 5.65894C35.8337 5.65894 36.0221 5.845 36.0221 6.07454C36.0221 6.30408 35.8337 6.49014 35.6014 6.49014C33.3961 6.49014 31.3739 8.31483 29.8866 11.2648C28.3552 14.3029 27.4081 18.5094 27.4081 23.1638C27.4081 27.8182 28.3552 32.0247 29.8866 35.0629C31.3736 38.0129 33.3961 39.8375 35.6014 39.8375C35.8337 39.8375 36.0221 40.0236 36.0221 40.2531C36.0221 40.4827 35.8337 40.6687 35.6014 40.6687C33.0492 40.6687 30.7647 38.6678 29.1342 35.4329C27.548 32.2861 26.5668 27.9476 26.5668 23.1644C26.5668 18.3812 27.548 14.0424 29.1342 10.8959C30.7647 7.66099 33.0495 5.66016 35.6014 5.66016V5.65894ZM44.081 7.23465C44.3133 7.23465 44.5017 7.42071 44.5017 7.65024C44.5017 7.87978 44.3133 8.06584 44.081 8.06584C39.8599 8.06584 36.0385 9.75573 33.2728 12.4879C30.5068 15.2199 28.7959 18.9945 28.7959 23.1635C28.7959 27.3327 30.5068 31.1073 33.2728 33.839C36.0388 36.5711 39.8602 38.2611 44.081 38.2611C44.3133 38.2611 44.5017 38.4471 44.5017 38.6767C44.5017 38.9062 44.3133 39.0923 44.081 39.0923C39.6278 39.0923 35.5961 37.3093 32.6779 34.4268C29.7596 31.5443 27.9546 27.5623 27.9546 23.1636C27.9546 18.7651 29.7596 14.7828 32.6779 11.9004C35.5963 9.0179 39.6277 7.23497 44.081 7.23497V7.23465ZM20.689 4.83095C20.4566 4.83095 20.2683 4.64489 20.2683 4.41535C20.2683 4.18582 20.4566 3.99976 20.689 3.99976C21.8961 3.99976 22.9192 6.22843 23.598 9.83167C24.242 13.2512 24.6402 17.9654 24.6402 23.1626C24.6402 28.3605 24.2417 33.074 23.598 36.4936C22.9193 40.0968 21.8962 42.3255 20.689 42.3255C20.4566 42.3255 20.2683 42.1394 20.2683 41.9099C20.2683 41.6803 20.4566 41.4943 20.689 41.4943C21.4317 41.4943 22.1737 39.5262 22.7731 36.344C23.4069 32.9784 23.7989 28.3185 23.7989 23.1622C23.7989 18.0058 23.4069 13.3457 22.7731 9.98034C22.174 6.79814 21.432 4.83003 20.689 4.83003V4.83095ZM14.1838 6.48983C13.9514 6.48983 13.763 6.30377 13.763 6.07423C13.763 5.84469 13.9514 5.65863 14.1838 5.65863C16.7359 5.65863 19.0204 7.65953 20.6509 10.8944C22.2371 14.0412 23.2183 18.3797 23.2183 23.1629C23.2183 27.9466 22.2372 32.2849 20.6509 35.4314C19.0204 38.6664 16.7359 40.6672 14.1838 40.6672C13.9514 40.6672 13.763 40.4811 13.763 40.2516C13.763 40.0221 13.9514 39.836 14.1838 39.836C16.3891 39.836 18.4113 38.0113 19.8986 35.0613C21.4299 32.0232 22.3771 27.8168 22.3771 23.1623C22.3771 18.5079 21.4299 14.3015 19.8986 11.2633C18.4116 8.31323 16.3891 6.48861 14.1838 6.48861V6.48983Z" fill="#2E2E2E"/>
<path d="M3.52367 44.9948H3.52075V44.9934V44.9919C3.52148 44.9912 3.52258 44.9905 3.52367 44.9905V44.9919H3.52221V44.9934V44.9948H3.52367V44.9934V44.9948Z" fill="#2E2E2E"/>
<path d="M3.52738 44.9933C3.52738 44.9925 3.52657 44.9917 3.52577 44.9917V44.9933V44.9949H3.52417V44.9917H3.52577H3.52738V44.9933Z" fill="#2E2E2E"/>
<path d="M3.52957 44.9933H3.52797V44.9949H3.52957V44.9933V44.9949H3.52797H3.52637V44.9933L3.52797 44.9917C3.52877 44.9917 3.52957 44.9925 3.52957 44.9933ZM3.52957 44.9933H3.52797V44.9917V44.9933H3.52957Z" fill="#2E2E2E"/>
<path d="M3.5309 44.9933V44.9949L3.5325 44.9933H3.5309ZM3.5325 44.9933V44.9949H3.5309H3.5293V44.9933H3.5309H3.5325H3.5309V44.9917H3.5293V44.9933V44.9917H3.5309H3.5325V44.9933Z" fill="#2E2E2E"/>
<path d="M3.53369 44.9905V44.9919H3.53515H3.53369V44.9934V44.9948H3.53515H3.53369H3.53223V44.9934V44.9905H3.53369Z" fill="#2E2E2E"/>
<path d="M3.53763 44.9933H3.53603V44.9949H3.53763V44.9933V44.9949H3.53603H3.53442V44.9933L3.53603 44.9917C3.53683 44.9917 3.53763 44.9925 3.53763 44.9933ZM3.53763 44.9933H3.53603V44.9917V44.9933H3.53763Z" fill="#2E2E2E"/>
<path d="M3.54052 44.9919V44.9905V44.9948H3.53906H3.5376V44.9934L3.53906 44.9919H3.54052ZM3.53906 44.9948L3.54052 44.9934H3.53906V44.9919V44.9934V44.9948Z" fill="#2E2E2E"/>
<path d="M3.5437 44.9948H3.54516V44.9934C3.54516 44.9926 3.54443 44.9919 3.5437 44.9919V44.9934V44.9948ZM3.5437 44.9919H3.54516V44.9934V44.9948H3.5437H3.54224V44.9905H3.5437V44.9919Z" fill="#2E2E2E"/>
<path d="M3.54541 44.9917H3.54687V44.9931L3.54833 44.9917L3.54687 44.9946V44.996H3.54541V44.9946H3.54687L3.54541 44.9917Z" fill="#2E2E2E"/>
<path d="M3.55231 44.9917H3.55106V44.993V44.9942H3.55231V44.993V44.9917ZM3.55231 44.9905V44.9917C3.55294 44.9917 3.55357 44.9923 3.55357 44.993L3.55231 44.9942H3.5498V44.993V44.9917C3.55043 44.9911 3.55137 44.9905 3.55231 44.9905Z" fill="#2E2E2E"/>
<path d="M3.55396 44.9905H3.55542V44.9948H3.55396V44.9905Z" fill="#2E2E2E"/>
<path d="M3.55863 44.9933H3.55702V44.9949H3.55863V44.9933V44.9949H3.55702H3.55542V44.9933L3.55702 44.9917C3.55782 44.9917 3.55863 44.9925 3.55863 44.9933ZM3.55863 44.9933H3.55702V44.9917V44.9933H3.55863Z" fill="#2E2E2E"/>
<path d="M3.55811 44.9905H3.55957V44.9934L3.56103 44.9919L3.55957 44.9934L3.56103 44.9948L3.55957 44.9934V44.9948H3.55811V44.9905Z" fill="#2E2E2E"/>
<path d="M3.56448 44.9917V44.9933C3.56448 44.9925 3.56368 44.9917 3.56288 44.9917V44.9933H3.56448V44.9949H3.56288H3.56128V44.9933V44.9949H3.56288V44.9933H3.56128V44.9917H3.56288H3.56448Z" fill="#2E2E2E"/>
<path d="M3.56557 44.9933V44.9949L3.56717 44.9933H3.56557ZM3.56717 44.9933V44.9949H3.56557H3.56396V44.9933H3.56557H3.56717H3.56557V44.9917H3.56396V44.9933V44.9917H3.56557H3.56717V44.9933Z" fill="#2E2E2E"/>
<path d="M3.5701 44.9933V44.9949V44.9933H3.5685V44.9917V44.9933V44.9949H3.56689V44.9917H3.5685H3.5701V44.9933Z" fill="#2E2E2E"/>
<path d="M3.57299 44.9919V44.9905V44.9948H3.57153H3.57007V44.9934L3.57153 44.9919H3.57299ZM3.57153 44.9948L3.57299 44.9934H3.57153V44.9919V44.9934V44.9948Z" fill="#2E2E2E"/>
<path d="M3.57645 44.9933C3.57645 44.9925 3.57565 44.9917 3.57484 44.9917V44.9933V44.9949H3.57324V44.9917H3.57484H3.57645V44.9933Z" fill="#2E2E2E"/>
<path d="M3.57715 44.9905H3.57861C3.57934 44.9905 3.58007 44.9912 3.58007 44.9919V44.9934H3.57861V44.9948H3.57715V44.9905ZM3.57861 44.9919V44.9934H3.58007V44.9919H3.57861Z" fill="#2E2E2E"/>
<path d="M3.58193 44.9933V44.9949L3.58353 44.9933H3.58193ZM3.58353 44.9933V44.9949H3.58193H3.58032V44.9933H3.58193H3.58353H3.58193V44.9917H3.58032V44.9933V44.9917H3.58193H3.58353V44.9933Z" fill="#2E2E2E"/>
<path d="M3.5867 44.9933V44.9949V44.9933H3.5851V44.9917V44.9933V44.9949H3.5835V44.9917H3.5851H3.5867V44.9933Z" fill="#2E2E2E"/>
<path d="M3.58827 44.9933V44.9949L3.58988 44.9933H3.58827ZM3.58988 44.9933V44.9949H3.58827H3.58667V44.9933H3.58827H3.58988H3.58827V44.9917H3.58667V44.9933V44.9917H3.58827H3.58988V44.9933Z" fill="#2E2E2E"/>
<path d="M3.59305 44.9917V44.9933C3.59305 44.9925 3.59225 44.9917 3.59145 44.9917V44.9933H3.59305V44.9949H3.59145H3.58984V44.9933V44.9949H3.59145V44.9933H3.58984V44.9917H3.59145H3.59305Z" fill="#2E2E2E"/>
<path d="M3.59389 44.9917V44.9933V44.9949L3.59549 44.9933H3.59389V44.9917ZM3.59389 44.9917C3.59469 44.9917 3.59549 44.9925 3.59549 44.9933V44.9949H3.59389H3.59229V44.9933L3.59389 44.9917Z" fill="#2E2E2E"/>
<path d="M3.59521 44.9917H3.59682V44.9933L3.59842 44.9917V44.9949H3.59682L3.59521 44.9917Z" fill="#2E2E2E"/>
<path d="M3.60135 44.9917V44.9933C3.60135 44.9925 3.60055 44.9917 3.59975 44.9917V44.9933H3.60135V44.9949H3.59975H3.59814V44.9933V44.9949H3.59975V44.9933H3.59814V44.9917H3.59975H3.60135Z" fill="#2E2E2E"/>
<path d="M3.60107 44.9905H3.60254V44.9934L3.604 44.9919L3.60254 44.9934L3.604 44.9948L3.60254 44.9934V44.9948H3.60107V44.9905Z" fill="#2E2E2E"/>
<path d="M3.60376 44.9917H3.60522V44.9931L3.60668 44.9917L3.60522 44.9946V44.996H3.60376V44.9946H3.60522L3.60376 44.9917Z" fill="#2E2E2E"/>
<path d="M3.60693 44.9919H3.6084V44.9948H3.60693V44.9919ZM3.60693 44.9905H3.6084V44.9919H3.60693V44.9905Z" fill="#2E2E2E"/>
<path d="M3.52367 44.9949V44.9963H3.52221H3.52367H3.52221V44.9992H3.52075V44.9963L3.52221 44.9949H3.52367Z" fill="#2E2E2E"/>
<path d="M3.52591 44.9977C3.52591 44.9969 3.52511 44.9961 3.52431 44.9961V44.9977V44.9993H3.52271V44.9961H3.52431H3.52591V44.9977Z" fill="#2E2E2E"/>
<path d="M3.52651 44.9961V44.9977V44.9993L3.52811 44.9977H3.52651V44.9961ZM3.52651 44.9961C3.52731 44.9961 3.52811 44.9969 3.52811 44.9977V44.9993H3.52651H3.5249V44.9977L3.52651 44.9961Z" fill="#2E2E2E"/>
<path d="M3.53034 44.9961H3.5316V44.9973V44.9986V44.9973V44.9961C3.53065 44.9961 3.53034 44.9967 3.53034 44.9973V44.9986V44.9973H3.52909V44.9961V44.9973V44.9986H3.52783V44.9961H3.52909H3.53034Z" fill="#2E2E2E"/>
<path d="M3.53564 44.9949V44.9963H3.5371H3.53564V44.9978V44.9992H3.5371H3.53564H3.53418V44.9978V44.9949H3.53564Z" fill="#2E2E2E"/>
<path d="M3.5393 44.9978V44.9992V44.9978H3.53784V44.9963V44.9978V44.9992H3.53638V44.9949H3.53784V44.9963H3.5393V44.9978Z" fill="#2E2E2E"/>
<path d="M3.54276 44.9977H3.54115V44.9993H3.54276V44.9977V44.9993H3.54115H3.53955V44.9977L3.54115 44.9961C3.54195 44.9961 3.54276 44.9969 3.54276 44.9977ZM3.54276 44.9977H3.54115V44.9961V44.9977H3.54276Z" fill="#2E2E2E"/>
<path d="M3.54419 44.9949H3.54544L3.5467 44.9974V44.9949H3.54795V44.9986H3.5467L3.54544 44.9961V44.9986H3.54419V44.9949Z" fill="#2E2E2E"/>
<path d="M3.54945 44.9961V44.9977V44.9993L3.55106 44.9977H3.54945V44.9961ZM3.54945 44.9961C3.55026 44.9961 3.55106 44.9969 3.55106 44.9977V44.9993H3.54945H3.54785V44.9977L3.54945 44.9961Z" fill="#2E2E2E"/>
<path d="M3.55103 44.9977V44.9961H3.55263V44.9977V44.9993L3.55423 44.9977V44.9961V44.9993H3.55263H3.55103V44.9977Z" fill="#2E2E2E"/>
<path d="M3.5574 44.9977V44.9993V44.9977H3.5558V44.9961V44.9977V44.9993H3.5542V44.9961H3.5558H3.5574V44.9977Z" fill="#2E2E2E"/>
<path d="M3.55884 44.9949H3.5603C3.56103 44.9949 3.56176 44.9956 3.56176 44.9963V44.9978H3.5603V44.9992H3.55884V44.9949ZM3.5603 44.9963V44.9978H3.56176V44.9963H3.5603Z" fill="#2E2E2E"/>
<path d="M3.56546 44.9977C3.56546 44.9969 3.56466 44.9961 3.56386 44.9961V44.9977V44.9993H3.56226V44.9961H3.56386H3.56546V44.9977Z" fill="#2E2E2E"/>
<path d="M3.56606 44.9961V44.9977V44.9993L3.56766 44.9977H3.56606V44.9961ZM3.56606 44.9961C3.56686 44.9961 3.56766 44.9969 3.56766 44.9977V44.9993H3.56606H3.56445V44.9977L3.56606 44.9961Z" fill="#2E2E2E"/>
<path d="M3.56763 44.9961H3.56888V44.9986C3.56888 44.9992 3.56825 44.9999 3.56763 44.9999V44.9961ZM3.56763 44.9949H3.56888V44.9961H3.56763V44.9949Z" fill="#2E2E2E"/>
<path d="M3.57205 44.9977H3.57045V44.9993H3.57205V44.9977V44.9993H3.57045H3.56885V44.9977L3.57045 44.9961C3.57125 44.9961 3.57205 44.9969 3.57205 44.9977ZM3.57205 44.9977H3.57045V44.9961V44.9977H3.57205Z" fill="#2E2E2E"/>
<path d="M3.57523 44.9961V44.9977C3.57523 44.9969 3.57443 44.9961 3.57362 44.9961V44.9977V44.9993H3.57523V44.9977V44.9993H3.57362H3.57202V44.9977L3.57362 44.9961H3.57523Z" fill="#2E2E2E"/>
<path d="M3.57617 44.9949V44.9963H3.57763H3.57617V44.9978V44.9992H3.57763H3.57617H3.57471V44.9978V44.9949H3.57617Z" fill="#2E2E2E"/>
</svg>
