<svg width="42" height="48" viewBox="0 0 42 48" fill="none" xmlns="http://www.w3.org/2000/svg">
<path d="M32.2803 20.8855C32.0621 20.4861 31.6383 20.2361 31.1837 20.2361H23.7063V5.24985C23.7063 4.69407 23.3451 4.2071 22.8152 4.05073C22.2854 3.8948 21.7125 4.10692 21.413 4.56905L7.70417 25.7996C7.45511 26.1868 7.43643 26.6738 7.65418 27.0736C7.87238 27.4796 8.29617 27.7296 8.75083 27.7296H16.2282V42.7158C16.2282 43.2716 16.5894 43.7586 17.1193 43.915C17.2379 43.9459 17.3562 43.9646 17.4748 43.9646C17.8925 43.9646 18.285 43.7586 18.5215 43.3962L32.2303 22.1657C32.4798 21.7785 32.4985 21.2915 32.2803 20.8856L32.2803 20.8855ZM18.7206 38.4888V26.4808C18.7206 25.7879 18.166 25.2321 17.4745 25.2321H11.0437L21.213 9.47758V21.4855C21.213 22.1785 21.7677 22.7343 22.4592 22.7343H28.8899L18.7206 38.4888Z" fill="#2E2E2E" stroke="#FAF6F0" stroke-width="1.3"/>
</svg>
