<svg width="48" height="48" viewBox="0 0 48 48" fill="none" xmlns="http://www.w3.org/2000/svg">
<path fill-rule="evenodd" clip-rule="evenodd" d="M39.6785 8.79218V8.79181C39.6785 8.57195 39.5898 8.37381 39.4465 8.23091C39.3029 8.08802 39.1051 8 38.8867 8H38.8864H38.886H27.7994C27.359 8 27.0069 8.35466 27.0069 8.79181C27.0069 9.23229 27.3616 9.58399 27.7994 9.58399H38.094V19.8786C38.094 20.319 38.4487 20.6711 38.8862 20.6711C39.3267 20.6711 39.678 20.3165 39.678 19.8786V8.79203V8.79166L39.6785 8.79218ZM8 38.8868V38.8872C8 39.107 8.08876 39.3052 8.23202 39.4481C8.37565 39.591 8.57342 39.679 8.79181 39.679H8.79218H8.79255H19.8791C20.3196 39.679 20.6716 39.3243 20.6716 38.8872C20.6716 38.4467 20.317 38.095 19.8791 38.095H9.58451V27.8004C9.58451 27.3599 9.22985 27.0078 8.79233 27.0078C8.35186 27.0078 8.00052 27.3625 8.00052 27.8004V38.8869V38.8873L8 38.8868ZM12.7836 35.1844C12.4747 34.875 12.4754 34.3727 12.7829 34.0651L34.065 12.783C34.3737 12.4744 34.8727 12.4725 35.1843 12.7838C35.4936 13.0931 35.4925 13.5955 35.185 13.9033L13.9038 35.1845C13.5948 35.4932 13.0958 35.495 12.7842 35.1838L12.7836 35.1844Z" fill="#2E2E2E" stroke="#E5E5E5" stroke-width="0.5"/>
</svg>
