<svg width="48" height="48" viewBox="0 0 48 48" fill="none" xmlns="http://www.w3.org/2000/svg">
<path d="M23.9609 4.00234C23.9385 4.00638 23.9165 4.01187 23.8949 4.01884C23.6504 4.07381 23.4786 4.2937 23.4844 4.54438V8.74765C23.4826 8.88802 23.5372 9.02362 23.6358 9.12367C23.7344 9.22408 23.8692 9.28053 24.01 9.28053C24.1507 9.28053 24.2856 9.22409 24.3841 9.12367C24.4827 9.02362 24.5373 8.88802 24.5355 8.74765V4.54438C24.5406 4.39302 24.4809 4.24716 24.3706 4.14345C24.2606 4.03936 24.1111 3.98806 23.9609 4.00235L23.9609 4.00234ZM10.202 9.6998C9.99752 9.7196 9.82343 9.85703 9.75637 10.0513C9.6893 10.2455 9.74134 10.461 9.89014 10.6028L12.862 13.5747C12.9555 13.6909 13.094 13.7616 13.2428 13.7697C13.3919 13.7777 13.5371 13.722 13.6426 13.6165C13.7482 13.5109 13.8039 13.3658 13.7958 13.2166C13.7878 13.0679 13.717 12.9293 13.6008 12.8359L10.629 9.86399C10.5308 9.76027 10.3944 9.7009 10.2515 9.6998C10.235 9.69907 10.2185 9.69907 10.202 9.6998H10.202ZM37.7028 9.6998C37.583 9.71703 37.473 9.77493 37.3909 9.86399L34.419 12.8359C34.3029 12.9293 34.2321 13.0679 34.2241 13.2166C34.216 13.3658 34.2717 13.5109 34.3773 13.6165C34.4828 13.722 34.6279 13.7777 34.7771 13.7697C34.9259 13.7616 35.0644 13.6909 35.1579 13.5747L38.1298 10.6028C38.2851 10.4526 38.3328 10.222 38.2492 10.0223C38.1657 9.82258 37.9685 9.69467 37.7523 9.6998C37.7358 9.69907 37.7193 9.69907 37.7028 9.6998H37.7028ZM24.0096 12.4254C17.617 12.4254 12.4181 17.624 12.4181 24.017C12.4181 28.0901 14.5554 31.6392 17.7376 33.704L19.2813 43.5054C19.3219 43.7631 19.5455 43.9518 19.8064 43.9489H28.213C28.4739 43.9518 28.6975 43.7631 28.7382 43.5054L30.2818 33.704C33.464 31.6392 35.6013 28.0901 35.6013 24.017C35.6013 17.6239 30.4023 12.4254 24.0098 12.4254H24.0096ZM24.0096 13.4761C29.8338 13.4761 34.5504 18.1928 34.5504 24.0169C34.5504 27.8181 32.5248 31.1436 29.5097 32.9977C29.3789 33.0768 29.2891 33.2084 29.2634 33.359L28.5081 38.1695H19.5108L18.7555 33.359C18.7299 33.2084 18.6401 33.0769 18.5092 32.9977C15.4941 31.1436 13.4685 27.8181 13.4685 24.0169C13.4685 18.1927 18.1852 13.4761 24.0093 13.4761H24.0096ZM4.47144 23.4586C4.18117 23.4861 3.96825 23.7434 3.99537 24.0333C4.02249 24.3236 4.27976 24.5368 4.57002 24.5097H8.77329C8.91366 24.5116 9.04926 24.4569 9.14931 24.3584C9.24973 24.2598 9.30617 24.1249 9.30617 23.9842C9.30617 23.8434 9.24973 23.7086 9.14931 23.61C9.04926 23.5114 8.91366 23.4568 8.77329 23.4586H4.57002C4.55353 23.4579 4.53704 23.4579 4.52055 23.4586C4.50442 23.4579 4.48793 23.4579 4.47144 23.4586L4.47144 23.4586ZM39.1476 23.4586C38.8574 23.4861 38.6441 23.7434 38.6712 24.0333C38.6987 24.3236 38.956 24.5368 39.2459 24.5097H43.4491C43.5899 24.5116 43.7255 24.4569 43.8255 24.3584C43.9256 24.2598 43.982 24.1249 43.982 23.9842C43.982 23.8434 43.9256 23.7086 43.8255 23.61C43.7255 23.5114 43.5899 23.4568 43.4491 23.4586H39.2459C39.2297 23.4579 39.2132 23.4579 39.1968 23.4586C39.1803 23.4579 39.1638 23.4579 39.1476 23.4586V23.4586ZM13.1733 34.2293C13.0535 34.2465 12.9432 34.3044 12.8614 34.3935L9.88957 37.3653C9.7734 37.4588 9.70267 37.5973 9.69461 37.7465C9.68654 37.8953 9.74225 38.0404 9.8478 38.146C9.95334 38.2515 10.0985 38.3072 10.2473 38.2991C10.3964 38.2911 10.535 38.2203 10.6284 38.1042L13.6003 35.1323C13.7652 34.9762 13.8114 34.7317 13.7143 34.5261C13.6171 34.3205 13.3987 34.2011 13.1733 34.2293ZM34.6818 34.2293C34.4857 34.2648 34.3266 34.4081 34.2709 34.5994C34.2152 34.7907 34.2728 34.9971 34.419 35.1323L37.3909 38.1042C37.4843 38.2204 37.6229 38.2911 37.772 38.2991C37.9208 38.3072 38.0659 38.2515 38.1715 38.146C38.277 38.0404 38.3327 37.8953 38.3247 37.7465C38.3166 37.5973 38.2459 37.4588 38.1297 37.3653L35.1578 34.3935C35.0482 34.2766 34.891 34.2161 34.7309 34.2293C34.7147 34.2285 34.6983 34.2285 34.6818 34.2293H34.6818ZM19.692 39.2205H28.3279L27.7533 42.8985H20.2667L19.692 39.2205Z" fill="#2E2E2E"/>
</svg>
