<svg width="56" height="56" viewBox="0 0 56 56" fill="none" xmlns="http://www.w3.org/2000/svg">
<path fill-rule="evenodd" clip-rule="evenodd" d="M28 55C42.9117 55 55 42.9117 55 28C55 13.0883 42.9117 1 28 1C13.0883 1 1 13.0883 1 28C1 42.9117 13.0883 55 28 55ZM28 56C43.464 56 56 43.464 56 28C56 12.536 43.464 0 28 0C12.536 0 0 12.536 0 28C0 43.464 12.536 56 28 56ZM27.9325 12.8512C27.9434 12.8507 27.9543 12.8507 27.9652 12.851C28.1114 12.8419 28.255 12.8972 28.3564 13.0035C31.5689 16.3368 36.1581 17.8338 40.7816 17.945C41.0469 17.9531 41.2623 18.1679 41.2623 18.4346C41.2623 30.7889 35.7514 40.0234 28.1405 42.3382L28.1384 42.3388C28.048 42.3649 27.9518 42.3648 27.8614 42.3388L27.8593 42.3382C20.2484 40.0239 14.7375 30.7889 14.7375 18.4346C14.7375 18.1679 14.9519 17.9531 15.2172 17.945C19.8398 17.8339 24.4294 16.3372 27.642 13.0049C27.7114 12.9286 27.8028 12.8767 27.9025 12.8547L27.9185 12.8512H27.9325ZM27.9996 13.8077C24.7 17.079 20.1593 18.5642 15.5991 18.7423C15.6928 30.6448 20.9993 39.2989 27.9996 41.4945C34.9996 39.2987 40.3067 30.6448 40.4001 18.7424C35.8398 18.5643 31.2993 17.0789 27.9996 13.8077ZM26.2195 30.5743L33.3289 23.4582C33.4173 23.3868 33.5289 23.3504 33.6425 23.356C33.7573 23.3616 33.8658 23.4097 33.9471 23.491C34.0283 23.5723 34.0765 23.6808 34.0821 23.7956C34.0877 23.9092 34.0513 24.0208 33.9798 24.1092L26.5459 31.5431C26.4572 31.626 26.3409 31.6729 26.2195 31.6748C26.0982 31.6729 25.9819 31.626 25.8932 31.5431L22.178 27.828C22.1066 27.7396 22.0702 27.6279 22.0757 27.5144C22.0814 27.3996 22.1295 27.291 22.2108 27.2097C22.292 27.1285 22.4006 27.0804 22.5154 27.0747C22.6289 27.0691 22.7406 27.1056 22.829 27.177L26.2195 30.5743Z" fill="#A0600B"/>
</svg>
