<svg width="56" height="56" viewBox="0 0 56 56" fill="none" xmlns="http://www.w3.org/2000/svg">
<path fill-rule="evenodd" clip-rule="evenodd" d="M28 55C42.9117 55 55 42.9117 55 28C55 13.0883 42.9117 1 28 1C13.0883 1 1 13.0883 1 28C1 42.9117 13.0883 55 28 55ZM28 56C43.464 56 56 43.464 56 28C56 12.536 43.464 0 28 0C12.536 0 0 12.536 0 28C0 43.464 12.536 56 28 56ZM24.6739 28.4833L20.6565 32.5007C20.4681 32.6891 20.4681 32.9991 20.6565 33.1876C20.845 33.376 21.1492 33.376 21.3376 33.1876L26.1818 28.3434C26.2266 28.2987 26.2621 28.2456 26.2864 28.1872C26.3106 28.1288 26.3231 28.0661 26.3231 28.0029C26.3231 27.9396 26.3106 27.877 26.2864 27.8186C26.2621 27.7602 26.2266 27.7071 26.1819 27.6624L21.3434 22.8123C21.2987 22.7676 21.2456 22.7322 21.1872 22.7079C21.1288 22.6837 21.0662 22.6713 21.0029 22.6713C20.9397 22.6713 20.877 22.6837 20.8186 22.7079C20.7602 22.7322 20.7071 22.7676 20.6624 22.8123C20.6177 22.8571 20.5822 22.9102 20.558 22.9686C20.5338 23.027 20.5213 23.0896 20.5213 23.1529C20.5213 23.2161 20.5338 23.2788 20.558 23.3372C20.5822 23.3956 20.6177 23.4487 20.6624 23.4934L24.6734 27.5166L13.5833 27.5167C13.3177 27.5167 13.1 27.7344 13.1 28C13.1 28.2656 13.3177 28.4833 13.5833 28.4833L24.6739 28.4833ZM35.7663 32.5007L31.7489 28.4833L42.8395 28.4833C43.1051 28.4833 43.3229 28.2656 43.3229 28C43.3229 27.7344 43.1051 27.5167 42.8395 27.5167L31.7495 27.5166L35.7605 23.4934C35.8052 23.4487 35.8407 23.3956 35.8649 23.3372C35.8891 23.2788 35.9015 23.2161 35.9015 23.1529C35.9015 23.0896 35.8891 23.027 35.8649 22.9686C35.8407 22.9102 35.8052 22.8571 35.7605 22.8123C35.7158 22.7676 35.6627 22.7322 35.6042 22.7079C35.5458 22.6837 35.4832 22.6713 35.4199 22.6713C35.3567 22.6713 35.2941 22.6837 35.2356 22.7079C35.1772 22.7322 35.1241 22.7676 35.0794 22.8123L30.241 27.6624C30.1962 27.7071 30.1607 27.7602 30.1365 27.8186C30.1122 27.877 30.0998 27.9396 30.0998 28.0029C30.0998 28.0661 30.1122 28.1288 30.1365 28.1872C30.1607 28.2456 30.1963 28.2987 30.2411 28.3434L35.0852 33.1876C35.2737 33.376 35.5779 33.376 35.7663 33.1876C35.9548 32.9991 35.9548 32.6891 35.7663 32.5007Z" fill="#A0600B"/>
</svg>
