<svg width="56" height="56" viewBox="0 0 56 56" fill="none" xmlns="http://www.w3.org/2000/svg">
<path fill-rule="evenodd" clip-rule="evenodd" d="M28 55C42.9117 55 55 42.9117 55 28C55 13.0883 42.9117 1 28 1C13.0883 1 1 13.0883 1 28C1 42.9117 13.0883 55 28 55ZM28 56C43.464 56 56 43.464 56 28C56 12.536 43.464 0 28 0C12.536 0 0 12.536 0 28C0 43.464 12.536 56 28 56ZM12.879 27.9645C12.879 19.6462 19.6462 12.879 27.9645 12.879C36.2828 12.879 43.05 19.6462 43.05 27.9645C43.05 36.2828 36.2828 43.05 27.9645 43.05C19.6462 43.05 12.879 36.2828 12.879 27.9645ZM13.7127 27.9645C13.7127 35.8234 20.1057 42.2164 27.9645 42.2164C35.8234 42.2164 42.2164 35.8234 42.2164 27.9645C42.2164 20.1057 35.8234 13.7127 27.9645 13.7127C20.1057 13.7127 13.7127 20.1057 13.7127 27.9645ZM27.9646 17.4856C22.1865 17.4856 17.4859 22.186 17.4859 27.9643C17.4859 33.7426 22.1863 38.443 27.9646 38.443C33.7429 38.443 38.4433 33.7426 38.4433 27.9643C38.4433 22.186 33.7429 17.4856 27.9646 17.4856ZM27.9646 37.6094C22.6462 37.6094 18.3195 33.2825 18.3195 27.9643C18.3195 22.6461 22.6464 18.3192 27.9646 18.3192C33.2828 18.3192 37.6096 22.6461 37.6096 27.9643C37.6096 33.2825 33.2828 37.6094 27.9646 37.6094ZM22.0911 27.9646C22.0911 24.7263 24.7259 22.0913 27.9645 22.0913C31.2032 22.0913 33.8379 24.726 33.8379 27.9646C33.8379 31.203 31.2032 33.838 27.9645 33.838C24.7261 33.838 22.0911 31.2033 22.0911 27.9646ZM22.9246 27.9648C22.9246 30.7435 25.1853 33.0047 27.9645 33.0047C30.7433 33.0047 33.0044 30.7435 33.0044 27.9648C33.0044 25.186 30.7433 22.9249 27.9645 22.9249C25.1858 22.9249 22.9246 25.1856 22.9246 27.9648ZM27.9648 28.9829C28.5272 28.9829 28.9833 28.5268 28.9833 27.9644C28.9833 27.4019 28.5272 26.9459 27.9648 26.9459C27.4023 26.9459 26.9463 27.4019 26.9463 27.9644C26.9463 28.5268 27.4023 28.9829 27.9648 28.9829Z" fill="#A0600B"/>
</svg>
