<svg width="56" height="56" viewBox="0 0 56 56" fill="none" xmlns="http://www.w3.org/2000/svg">
<path fill-rule="evenodd" clip-rule="evenodd" d="M55 28C55 42.9117 42.9117 55 28 55C13.0883 55 1 42.9117 1 28C1 13.0883 13.0883 1 28 1C42.9117 1 55 13.0883 55 28ZM56 28C56 43.464 43.464 56 28 56C12.536 56 0 43.464 0 28C0 12.536 12.536 0 28 0C43.464 0 56 12.536 56 28ZM40.0001 20.5C40.2762 20.5 40.5001 20.2762 40.5001 20C40.5001 19.7239 40.2762 19.5 40.0001 19.5L26.0001 19.5C25.9862 19.5 25.9724 19.5006 25.9588 19.5017C25.7214 18.082 24.4871 17 23 17C21.5135 17 20.2795 18.0812 20.0414 19.5H16.0001C15.724 19.5 15.5001 19.7239 15.5001 20C15.5001 20.2762 15.724 20.5 16.0001 20.5H20.0414C20.2795 21.9189 21.5135 23 23 23C24.4871 23 25.7214 21.918 25.9588 20.4983C25.9724 20.4995 25.9862 20.5 26.0001 20.5L40.0001 20.5ZM21 19.9895C21.0057 18.8898 21.8989 18 23 18C24.1045 18 25 18.8955 25 20C25 21.1046 24.1045 22 23 22C21.8989 22 21.0057 21.1103 21 20.0105L21.0001 20L21 19.9895ZM40.5001 36C40.5001 36.2762 40.2762 36.5 40.0001 36.5H26.0001C25.9931 36.5 25.9861 36.4999 25.9791 36.4996C25.9757 36.4995 25.9724 36.4993 25.9691 36.4991C25.9656 36.4989 25.9622 36.4986 25.9588 36.4984C25.7214 37.918 24.4871 39 23 39C21.5135 39 20.2795 37.9189 20.0414 36.5H16.0001C15.724 36.5 15.5001 36.2762 15.5001 36C15.5001 35.7239 15.724 35.5 16.0001 35.5H20.0414C20.2795 34.0812 21.5135 33 23 33C24.4871 33 25.7214 34.082 25.9588 35.5017C25.9724 35.5006 25.9862 35.5 26.0001 35.5H40.0001C40.2762 35.5 40.5001 35.7239 40.5001 36ZM23 38C21.8989 38 21.0057 37.1103 21 36.0105L21.0001 36L21 35.9895C21.0057 34.8898 21.8989 34 23 34C24.1045 34 25 34.8955 25 36C25 37.1046 24.1045 38 23 38ZM30.0415 27.5H16.0001C15.724 27.5 15.5001 27.7239 15.5001 28C15.5001 28.2762 15.724 28.5 16.0001 28.5H30.0415C30.2795 29.9189 31.5135 31 33 31C34.4871 31 35.7214 29.918 35.9588 28.4984C35.9724 28.4995 35.9862 28.5 36.0001 28.5H40.0001C40.2762 28.5 40.5001 28.2762 40.5001 28C40.5001 27.7239 40.2762 27.5 40.0001 27.5H36.0001C35.9862 27.5 35.9724 27.5006 35.9588 27.5017C35.7214 26.082 34.4871 25 33 25C31.5135 25 30.2795 26.0812 30.0415 27.5ZM35 28C35 29.1046 34.1046 30 33 30C31.8954 30 31 29.1046 31 28C31 26.8955 31.8954 26 33 26C34.1046 26 35 26.8955 35 28Z" fill="#A0600B"/>
</svg>
