<svg width="56" height="56" viewBox="0 0 56 56" fill="none" xmlns="http://www.w3.org/2000/svg">
<path fill-rule="evenodd" clip-rule="evenodd" d="M28 1C13.0883 1 1 13.0883 1 28C1 42.9117 13.0883 55 28 55C42.9117 55 55 42.9117 55 28C55 13.0883 42.9117 1 28 1ZM0 28C0 12.536 12.536 0 28 0C43.464 0 56 12.536 56 28C56 43.464 43.464 56 28 56C12.536 56 0 43.464 0 28ZM18.8787 27.4341L18.8776 27.4343C18.8776 27.7013 18.6645 27.9122 18.4105 27.9122C18.1564 27.9122 17.9433 27.7013 17.9433 27.4343C17.9433 24.6013 18.9689 22.0122 20.6629 20.0278L20.8118 19.8534L19.5137 18.5358C19.3297 18.3496 19.3295 18.0446 19.5134 17.8586C19.6949 17.6738 19.9893 17.6733 20.1705 17.8579L21.4683 19.1751L21.646 19.0131C23.6193 17.2149 26.227 16.1211 29.0868 16.1211C32.1627 16.1211 34.9473 17.3859 36.9649 19.4339C38.9818 21.481 40.2294 24.3101 40.2294 27.4356C40.2294 30.5611 38.9818 33.3892 36.9649 35.4372C34.9472 37.4852 32.1626 38.75 29.0868 38.75H18.4103C18.1563 38.75 17.9432 38.5391 17.9432 38.2721C17.9432 38.0051 18.1563 37.7942 18.4103 37.7942H29.0868C31.9075 37.7942 34.4605 36.6336 36.3067 34.7595C38.153 32.8856 39.295 30.296 39.295 27.4366C39.295 24.5773 38.153 21.9875 36.3067 20.1137C34.4604 18.2397 31.9073 17.079 29.0868 17.079C26.2673 17.079 23.7132 18.2396 21.867 20.1137C20.0212 21.9872 18.8794 24.5758 18.8787 27.4341ZM29.4156 27.7737C29.2333 27.9579 28.9399 27.9579 28.7575 27.7737H29.4156ZM28.7575 27.7737C28.5738 27.5866 28.5741 27.2819 28.7577 27.0946L28.7575 27.7737ZM32.8821 22.9083C33.0645 22.7241 33.3579 22.7241 33.5403 22.9082L32.8821 22.9083ZM33.5403 22.9082C33.7239 23.0954 33.7237 23.4001 33.5401 23.5873L33.5403 22.9082ZM25.6484 31.1595C25.6484 30.8925 25.4353 30.6816 25.1813 30.6816H10.5994C10.3452 30.6816 10.1323 30.8918 10.1323 31.1595C10.1323 31.4265 10.3454 31.6374 10.5994 31.6374H25.1813C25.4353 31.6374 25.6484 31.4265 25.6484 31.1595ZM25.6484 34.7151C25.6484 34.4481 25.4353 34.2373 25.1813 34.2373H14.5048C14.2507 34.2373 14.0377 34.4481 14.0377 34.7151C14.0377 34.9822 14.2507 35.193 14.5048 35.193H25.1813C25.4353 35.193 25.6484 34.9821 25.6484 34.7151ZM26.8075 13.7279C26.8075 13.9949 27.0206 14.2058 27.2746 14.2058H30.8996C31.1536 14.2058 31.3667 13.9949 31.3667 13.7279C31.3667 13.4609 31.1536 13.25 30.8996 13.25H27.2746C27.0206 13.25 26.8075 13.4609 26.8075 13.7279ZM30.7575 27.7736C30.9399 27.9578 31.2333 27.9578 31.4156 27.7736L33.4779 25.6804L35.5401 23.5872C35.7237 23.4 35.7239 23.0953 35.5403 22.9081C35.3579 22.724 35.0645 22.724 34.8821 22.9082L32.8199 25.0014L30.7577 27.0945C30.5741 27.2818 30.5738 27.5865 30.7575 27.7736Z" fill="#A0600B"/>
</svg>
