<svg width="56" height="56" viewBox="0 0 56 56" fill="none" xmlns="http://www.w3.org/2000/svg">
<path fill-rule="evenodd" clip-rule="evenodd" d="M28 55C42.9117 55 55 42.9117 55 28C55 13.0883 42.9117 1 28 1C13.0883 1 1 13.0883 1 28C1 42.9117 13.0883 55 28 55ZM28 56C43.464 56 56 43.464 56 28C56 12.536 43.464 0 28 0C12.536 0 0 12.536 0 28C0 43.464 12.536 56 28 56ZM36.9 21.8987H19.1C18.1034 21.8987 17.4161 21.8995 16.8826 21.9431C16.3608 21.9857 16.0749 22.0643 15.865 22.1712C15.3946 22.4109 15.0121 22.7933 14.7725 23.2637C14.6655 23.4736 14.587 23.7596 14.5443 24.2813C14.5007 24.8148 14.5 25.5021 14.5 26.4987V29.5903C14.5 30.5869 14.5007 31.2742 14.5443 31.8076C14.587 32.3294 14.6655 32.6154 14.7725 32.8252C15.0121 33.2957 15.3946 33.6781 15.865 33.9178C16.0749 34.0247 16.3608 34.1033 16.8826 34.1459C17.4161 34.1895 18.1034 34.1903 19.1 34.1903H36.9C37.8966 34.1903 38.5839 34.1895 39.1173 34.1459C39.6391 34.1033 39.9251 34.0247 40.1349 33.9178C40.6054 33.6781 40.9878 33.2957 41.2275 32.8252C41.3344 32.6154 41.413 32.3294 41.4556 31.8076C41.4992 31.2742 41.5 30.5869 41.5 29.5903V26.4987C41.5 25.5021 41.4992 24.8148 41.4556 24.2813C41.413 23.7596 41.3344 23.4736 41.2275 23.2637C40.9878 22.7933 40.6054 22.4109 40.1349 22.1712C39.9251 22.0643 39.6391 21.9857 39.1173 21.9431C38.5839 21.8995 37.8966 21.8987 36.9 21.8987ZM13.8814 22.8097C13.5 23.5584 13.5 24.5385 13.5 26.4987V29.5903C13.5 31.5505 13.5 32.5305 13.8814 33.2792C14.217 33.9378 14.7524 34.4732 15.411 34.8088C16.1597 35.1903 17.1398 35.1903 19.1 35.1903H36.9C38.8602 35.1903 39.8402 35.1903 40.5889 34.8088C41.2475 34.4732 41.7829 33.9378 42.1185 33.2792C42.5 32.5305 42.5 31.5505 42.5 29.5903V26.4987C42.5 24.5385 42.5 23.5584 42.1185 22.8097C41.7829 22.1512 41.2475 21.6157 40.5889 21.2802C39.8402 20.8987 38.8602 20.8987 36.9 20.8987H19.1C17.1398 20.8987 16.1597 20.8987 15.411 21.2802C14.7524 21.6157 14.217 22.1512 13.8814 22.8097ZM31.6789 28.4915H24.2796C24.0382 28.4915 23.8395 28.2942 23.8395 28.0468C23.8395 27.7995 24.0382 27.6021 24.2796 27.6021H31.6789C31.9202 27.6021 32.119 27.7995 32.119 28.0468C32.119 28.2942 31.9202 28.4915 31.6789 28.4915Z" fill="#A0600B"/>
</svg>
